<svg class="icon" viewBox="0 0 1024 1024" xmlns="http://www.w3.org/2000/svg" width="200" height="200"><defs/><defs><style/></defs><path d="M512 832c35.36 0 64 28.64 64 64v64c0 35.36-28.64 64-64 64s-64-28.64-64-64v-64c0-35.36 28.64-64 64-64zm0-640c-35.36 0-64-28.64-64-64V64c0-35.36 28.64-64 64-64s64 28.64 64 64v64c0 35.36-28.64 64-64 64zm448 256c35.36 0 64 28.64 64 64s-28.64 64-64 64h-64c-35.36 0-64-28.64-64-64s28.64-64 64-64h64zm-768 64c0 35.36-28.64 64-64 64H64c-35.36 0-64-28.64-64-64s28.64-64 64-64h64c35.36 0 64 28.64 64 64zm636.768 226.272l45.248 45.248c24.992 24.992 24.992 65.504 0 90.496s-65.504 24.992-90.496 0l-45.248-45.248c-24.992-24.992-24.992-65.504 0-90.496s65.504-24.992 90.496 0zM195.232 285.728l-45.248-45.248c-24.992-24.992-24.992-65.504 0-90.496s65.504-24.992 90.496 0l45.248 45.248c24.992 24.992 24.992 65.504 0 90.496s-65.504 24.992-90.496 0zm633.536 0c-24.992 24.992-65.504 24.992-90.496 0s-24.992-65.504 0-90.496l45.248-45.248c24.992-24.992 65.504-24.992 90.496 0s24.992 65.504 0 90.496l-45.248 45.248zM195.232 738.272c24.992-24.992 65.504-24.992 90.496 0s24.992 65.504 0 90.496l-45.248 45.248c-24.992 24.992-65.504 24.992-90.496 0s-24.992-65.504 0-90.496l45.248-45.248zM512 256c-141.376 0-256 114.624-256 256s114.624 256 256 256 256-114.624 256-256-114.624-256-256-256zm0 416c-88.352 0-160-71.648-160-160s71.648-160 160-160 160 71.648 160 160-71.648 160-160 160z"/></svg>