<svg class="icon" viewBox="0 0 1024 1024" xmlns="http://www.w3.org/2000/svg" width="200" fill="#FFF" height="200"><defs/><defs><style/></defs><path d="M794.258 744.594q-30.866 5.12-62.83 5.12-104.009 0-192.585-51.42T398.848 558.3t-51.42-192.585q0-109.714 59.466-203.995-114.835 34.304-187.685 130.852T146.36 512q0 74.313 29.11 141.97t77.971 116.59 116.59 77.97T512 877.641q82.286 0 156.306-35.108t126.025-98.012zm116.005-48.567Q856.576 812.032 748.25 881.445T512 950.857q-89.161 0-170.277-34.889t-139.995-93.696-93.696-139.995T73.142 512q0-87.406 32.842-167.131t89.161-138.021 134.583-93.989T495.47 73.728q25.16-1.17 34.889 22.309 10.313 23.405-8.558 41.179-49.152 44.544-75.118 103.717t-25.965 124.854q0 84.554 41.691 156.014t113.152 113.152 156.014 41.692q67.438 0 130.267-29.111 23.406-10.313 41.18 7.46 7.972 7.973 10.02 19.456t-2.56 21.724z"/></svg>